<?xml version="1.0" encoding="utf-8"?>
<!-- Generator: Adobe Illustrator 17.1.0, SVG Export Plug-In . SVG Version: 6.00 Build 0)  -->
<!DOCTYPE svg PUBLIC "-//W3C//DTD SVG 1.1//EN" "http://www.w3.org/Graphics/SVG/1.1/DTD/svg11.dtd">
<svg version="1.1" id="Layer_1" xmlns="http://www.w3.org/2000/svg" xmlns:xlink="http://www.w3.org/1999/xlink" x="0px" y="0px"
	 viewBox="0 0 216 48" enable-background="new 0 0 216 48" xml:space="preserve">
<g>
	<path fill="#FFFFFF" d="M22.9,0.2h-0.3c0,7.6-0.3,8.2-2.1,10.4c-1.7,2.2-5.4,2.6-11.4,2.6v0.3c6,0,9.6,0.4,11.4,2.6
		c1.8,2.2,2.1,4.3,2.1,11.8h0.3c0-7.6,0.3-9.6,2.1-11.8c1.7-2.2,5.4-2.6,11.4-2.6v-0.3c-6,0-9.6-0.4-11.4-2.6
		C23.2,8.3,22.9,7.7,22.9,0.2z"/>
	<path fill="#FFFFFF" d="M25.3,20.5c-0.2,0.8-0.2,1.2-0.2,2c2.7,2.5,4.5,6.1,4.5,10.1c0,7.5-6.1,13.6-13.6,13.6
		c-7.5,0-13.6-6.1-13.6-13.6c0-2.9,0.9-5.7,2.5-7.9L4.7,25c0,0,0.2,0.5,0.2,0.7c0,0.2,0.3,0.8,0.2,1c-0.1,0.2,0.1,0.7,0.1,0.7
		s0.1,0.5,0.5,0.5c0.4,0,0-0.3-0.1-0.3c-0.1-0.1-0.1-0.5-0.2-0.7c-0.1-0.3-0.1-0.3-0.1-0.8c-0.1-0.4,0.2-0.2,0.2-0.2s0.2,1,0.4,1.1
		c0.2,0.1,0.2,0.5,0.3,0.8c0,0.2,0.2,0.9,0.3,1c0,0.2,1,0.4,1.5,0.7c0.5,0.3,0.7-0.1,0.8-0.2c0.1,0-0.5,0.4,0.9,0.4
		c1.4,0,0.2,0,0.8,0.4c0.6,0.4,0.1,0.3,0.1,0.5c0,0.1,0.1,0.3,0.3,0.5c0.2,0.2,0.1,0.1,0.4,0c0.4-0.1,0.5,0,0.5,0s0.3,0.1,0.5,0
		c0.2,0,0-0.1,0.1-0.3c0.2-0.2,0.3,0.1,0.3,0.2c0,0.1,0.2,0.5,0.2,0.6c0,0.1-0.2,0.2-0.2,0.2s-0.2,0.6-0.3,0.6c0,0.1,0,0.4,0,0.8
		c0.1,0.4-0.2,0.4-0.3,0.6c0,0.2,0.1,0.7,0.4,1.2c0.4,0.5,0.4,0.3,0.5,0.3c0.1,0,0.8,1.4,0.8,1.5c0,0.1,1.4,0.6,1.7,0.8
		c0.3,0.2,0.2,0.5,0.3,0.9c0.1,0.4,0.1,1.2-0.2,1.6c-0.2,0.4,0.1,0.6,0.1,0.8c0,0.2,0,0.6,0,1c-0.1,0.4-0.1,0.4-0.1,0.8
		c0,0.4,0.1,0.4,0.1,0.4s0.1,0.2,0.1,0.3c0,0.1-0.1,0.2-0.2,0.3c-0.1,0.2,0,0.5,0.3,0.8c0.3,0.3,0.5,0.2,0.7,0.2c0.3,0,0-0.3,0-0.3
		s0.2-0.4,0.4-0.5c0.2-0.1,0-0.1-0.2-0.3c-0.2-0.1,0-0.2,0.1-0.4c0.1-0.1,0.2-0.1,0.2-0.3c0-0.2,0-0.1,0-0.3c0-0.1,0.2,0,0.4,0
		c0.1,0,0.2-0.1,0.2-0.3c0-0.2,0.1-0.1,0.6-0.3c0.5-0.1,0.4-0.3,0.5-0.5c0.1-0.1,0-0.3,0-0.4c0-0.1-0.2-0.3,0.6-0.3
		c0.8,0,0-0.3,0.3-0.3c0.2,0,1-1.4,1-1.4S20.8,39,21,38.6c0.2-0.5,0.5-0.2,1.1-0.7c0.6-0.5,0.3-0.1,0.6-0.5c0.3-0.4,0-0.4,0.3-0.9
		c0.3-0.4,0.3-0.3,0.1-1.2c-0.1-0.8,0.2-0.4,0.3-0.6c0.1-0.2,0.6-0.6,0.6-1c-0.1-0.4-0.2-0.8-0.3-0.8c-0.1,0-0.8-0.3-0.8-0.4
		c0-0.1-0.4-0.1-0.9-0.1c-0.5,0-0.4-0.2-0.4-0.2l-0.3-0.1c0,0-0.5-0.1-0.6-0.3c0-0.2-0.5-0.4-0.6-0.4c-0.1,0-0.3-0.3-0.3-0.5
		c0-0.2,0.1-0.2-0.7-0.3c-0.8-0.1-0.2,0.1-0.9,0c-0.6-0.1-0.4-0.4-0.9-0.6c-0.4-0.2-0.5-0.3-0.5-0.4c-0.1-0.1-0.6-0.1-0.7-0.1
		c-0.1,0-0.2,0.3-0.4,0.3c-0.2,0-0.2,0-0.4,0c-0.2,0-0.2-0.2-0.2-0.2s-0.2,0-0.3-0.1c-0.1-0.1-0.3-0.2-0.4-0.1
		c-0.1,0.1,0,0.2-0.1,0.2c-0.1,0-0.1-0.1-0.2-0.2c-0.1-0.1-0.2,0-0.3,0.2c-0.1,0.2-0.1,0.3-0.5,0.4c-0.4,0.1-0.1,0.1-0.1,0.4
		c0,0.3-0.1,0.3-0.4,0.3c-0.2,0-0.5-0.1-0.6-0.2c-0.1-0.1-0.2,0.3-0.2,0.3s-0.1,0.1-0.3,0.1c-0.2,0-0.1-0.2-0.4-0.3
		c-0.3-0.1-0.1-0.1,0.2,0c0.3,0,0-0.3,0.1-0.6c0.1-0.2,0-0.2-0.1-0.6c-0.1-0.3-0.2-0.3-0.2-0.3s-0.3,0-0.4-0.1
		c-0.1-0.1-0.2,0-0.5,0.1c-0.3,0.1-0.3,0-0.5,0.1c-0.2,0,0-0.1,0.2-0.3c0.2-0.2,0-0.3,0-0.7c0.1-0.4,0.2-0.3,0.2-0.6
		c0-0.2-0.4,0-0.4,0S9.6,27.8,9.4,28c-0.1,0.2-0.3,0.5-0.3,0.5c-0.1,0.1-0.5,0-0.7,0c-0.2,0-0.4-0.7-0.4-1.4
		c-0.1-0.6,0.2-0.4,0.2-0.7c0-0.3,0-0.4,0.5-0.5C9.2,26,9,26,9.2,26.1c0.2,0.1,0.1,0.2,0.4,0.1c0.3-0.1,0-0.3,0.2-0.4
		c0.1-0.1,0.2-0.3,0.2-0.3s0.1-0.3,0.3-0.5c0.3-0.1,0.2,0.2,0.7,0.5c0.5,0.3,0.1,0.1,0.1,0.5c0.1,0.4-0.1,0.5-0.1,0.7
		c0,0.1,0.4-0.1,0.6-0.1c0.2,0,0.1-0.3,0.2-0.7c0.1-0.4,0-0.1-0.2-0.3c-0.2-0.3-0.2-0.6-0.2-0.6s0.3-0.2,0.3-0.3
		c0-0.1,0-0.1,0.1-0.3c0.1-0.1,0.2-0.1,0.4-0.2c0.1-0.1,0-0.1,0.1-0.3c0.1-0.3,0.4-0.2,0.4-0.3c0-0.1,0-0.3-0.1-0.5
		c0-0.1,0.3-0.5,0.5-0.9c0.2-0.4,0.4-0.1,0.4-0.1s0.1-0.2,0-0.3c-0.2-0.1,0-0.3,0-0.5c0-0.2,0.4,0.3,0.6,0.4
		c0.2,0.1,0.2-0.1,0.6-0.2c0.4-0.1,0.2-0.3,0.2-0.3s-0.2-0.2-0.4-0.3c-0.2,0,0,0-0.5,0c-0.5,0-0.1-0.2,0.5-0.3
		c0.6-0.1,0.1-0.2,0.1-0.2S15,20.7,15,21c0,0.2,0.3,0,0.7,0c0.3,0,0.3,0.1,0.4,0.1c0.2,0,0.2,0-0.3-0.4c-0.5-0.4-0.4-0.2-0.4-0.2
		s-0.2-0.2-0.3-0.4c-0.1-0.2-0.9-0.3-0.9-0.3l-0.4-0.1l-0.4-0.2l0,0.2l-0.6-0.3l-0.1,0c1.1-0.3,2.2-0.4,3.3-0.4
		c1.5,0,2.9,0.2,4.2,0.7c-0.2-1-0.3-1.4-0.7-1.9c-1.1-0.3-2.3-0.4-3.5-0.4c-8.4,0-15.3,6.9-15.3,15.3c0,8.4,6.9,15.3,15.3,15.3
		c8.4,0,15.3-6.9,15.3-15.3C31.2,27.7,28.9,23.3,25.3,20.5z M12,19.5l0,0.3l0,0.3c0,0-0.2,0.1-0.2,0.2c0,0.1,0,0.2,0,0.3
		c0,0.1-0.1,0.1-0.2,0.2c-0.1,0.1-0.1-0.2-0.1-0.2l-0.1-0.2l-0.1,0l-0.8-0.1l-0.1-0.1C10.9,19.9,11.4,19.7,12,19.5z"/>
	<path fill="#FFFFFF" d="M53.5,25H40.3c-0.1,0-0.2,0.1-0.2,0.2v16.7c0,0.1,0.1,0.2,0.2,0.2h2.8c0.1,0,0.2-0.1,0.2-0.2v-6.2H53
		c2,0,3.6-0.5,4.7-1.4c1.1-0.9,1.6-2.2,1.6-4c0-1.6-0.5-3-1.6-3.9C56.7,25.5,55.3,25,53.5,25z M53,32.8h-9.8v-4.9h9.6
		c2.1,0,3.2,0.8,3.2,2.6C56,32,55.1,32.8,53,32.8z"/>
	<path fill="#FFFFFF" d="M79.5,26.7c-2-1.5-4.5-2.3-7.4-2.3c-2.9,0-5.4,0.8-7.4,2.3c-2.3,1.8-3.5,4-3.5,6.8c0,2.8,1.2,5.1,3.4,6.8
		c2,1.5,4.5,2.3,7.5,2.3c3,0,5.5-0.8,7.4-2.3c2.3-1.7,3.5-4,3.5-6.8C83,30.8,81.8,28.5,79.5,26.7z M77.7,37.9
		c-1.4,1.1-3.3,1.7-5.5,1.7c-2.3,0-4.2-0.6-5.6-1.7c-1.4-1.1-2.1-2.6-2.1-4.4c0-1.8,0.7-3.2,2.1-4.4c1.4-1.1,3.3-1.7,5.5-1.7
		c2.1,0,3.8,0.5,5.2,1.5c1.6,1.2,2.4,2.7,2.4,4.6C79.7,35.3,79,36.8,77.7,37.9z"/>
	<path fill="#FFFFFF" d="M103.1,39.2H90.5v-14c0-0.1-0.1-0.2-0.2-0.2h-2.8c-0.1,0-0.2,0.1-0.2,0.2v16.7c0,0.1,0.1,0.2,0.2,0.2h15.6
		c0.1,0,0.2-0.1,0.2-0.2v-2.5C103.3,39.3,103.3,39.2,103.1,39.2z"/>
	<path fill="#FFFFFF" d="M123.8,39.2h-14.5v-4.5h9.6c0.1,0,0.2-0.1,0.2-0.2V32c0-0.1-0.1-0.2-0.2-0.2h-9.6v-3.9h13.9
		c0.1,0,0.2-0.1,0.2-0.2v-2.5c0-0.1-0.1-0.2-0.2-0.2h-16.8c-0.1,0-0.2,0.1-0.2,0.2v16.7c0,0.1,0.1,0.2,0.2,0.2h17.5
		c0.1,0,0.2-0.1,0.2-0.2v-2.5C124.1,39.3,124,39.2,123.8,39.2z"/>
	<path fill="#FFFFFF" d="M150.9,33.3c-1-0.8-2.6-1.3-4.7-1.6c-0.7-0.1-2.2-0.2-4.6-0.4c-1.5-0.1-2.6-0.3-3.3-0.5
		c-0.9-0.3-1.3-0.8-1.3-1.4c0-0.6,0.4-1.1,1.2-1.5c0.9-0.4,2.2-0.6,3.8-0.6c2.5,0,5,0.6,7.5,1.9c0,0,0.1,0,0.1,0
		c0.1,0,0.1,0,0.2-0.1l1.7-1.9c0,0,0.1-0.1,0-0.2c0-0.1,0-0.1-0.1-0.1c-2.4-1.7-5.5-2.5-9.1-2.5c-2.7,0-4.8,0.5-6.3,1.4
		c-1.5,0.9-2.3,2.2-2.3,3.9c0,1.6,0.7,2.8,2,3.4c1.1,0.6,3.1,0.9,5.9,1.1c3.8,0.2,5.2,0.4,5.7,0.6c1.3,0.3,1.9,1,1.9,1.9
		c0,0.8-0.5,1.5-1.4,2c-1,0.5-2.5,0.8-4.5,0.8c-3,0-5.8-0.8-8.3-2.4c0,0-0.1,0-0.1,0c-0.1,0-0.1,0-0.2,0.1l-1.5,2
		c-0.1,0.1-0.1,0.2,0,0.3c2.4,1.9,5.8,2.9,10.1,2.9c3,0,5.3-0.5,6.9-1.5c1.6-1,2.5-2.4,2.5-4.3C152.5,35.3,151.9,34.1,150.9,33.3z"
		/>
	<path fill="#FFFFFF" d="M173.1,27.7v-2.5c0-0.1-0.1-0.2-0.2-0.2h-18.7c-0.1,0-0.2,0.1-0.2,0.2v2.5c0,0.1,0.1,0.2,0.2,0.2h7.8v14
		c0,0.1,0.1,0.2,0.2,0.2h2.8c0.1,0,0.2-0.1,0.2-0.2v-14h7.8C173,27.9,173.1,27.8,173.1,27.7z"/>
	<path fill="#FFFFFF" d="M184.4,25h-3.5c-0.1,0-0.1,0-0.2,0.1l-8.8,16.7c0,0.1,0,0.1,0,0.2c0,0.1,0.1,0.1,0.2,0.1h3
		c0.1,0,0.2,0,0.2-0.1l1.9-3.6h11L190,42c0,0.1,0.1,0.1,0.2,0.1h3c0.1,0,0.1,0,0.2-0.1c0-0.1,0-0.1,0-0.2l-8.8-16.7
		C184.5,25,184.5,25,184.4,25z M178.7,35.4l4-7.4l3.9,7.4H178.7z"/>
	<path fill="#FFFFFF" d="M215.4,41.7l-4.3-6.2c1.2-0.2,2.2-0.8,2.9-1.5c0.8-0.9,1.3-2.1,1.3-3.6c0-1.7-0.5-3-1.6-4
		c-1-1-2.5-1.5-4.3-1.5h-13.2c-0.1,0-0.2,0.1-0.2,0.2v16.7c0,0.1,0.1,0.2,0.2,0.2h2.8c0.1,0,0.2-0.1,0.2-0.2v-6.2h8.1l4.4,6.3
		c0,0.1,0.1,0.1,0.2,0.1h3.2c0.1,0,0.1,0,0.2-0.1C215.5,41.9,215.4,41.8,215.4,41.7z M199.3,27.9h9.5c2.2,0,3.2,0.8,3.2,2.6
		c0,1.6-1,2.4-3,2.4h-9.8V27.9z"/>
</g>
</svg>
